<mxfile host="app.diagrams.net" agent="Mozilla/5.0 (Windows NT 10.0; Win64; x64; rv:128.0) Gecko/20100101 Firefox/128.0" version="24.7.6">
  <diagram name="Página-1" id="1I2NpguU9Cbnj842ZvMQ">
    <mxGraphModel dx="1290" dy="558" grid="1" gridSize="10" guides="1" tooltips="1" connect="1" arrows="1" fold="1" page="1" pageScale="1" pageWidth="827" pageHeight="1169" math="0" shadow="0">
      <root>
        <mxCell id="0" />
        <mxCell id="1" parent="0" />
        <mxCell id="SDAFO1bnm1LYiTZY5Lul-3" value="Application" style="swimlane;" vertex="1" parent="1">
          <mxGeometry x="30" y="20" width="230" height="250" as="geometry" />
        </mxCell>
        <mxCell id="SDAFO1bnm1LYiTZY5Lul-12" value="&lt;div&gt;Documents&lt;/div&gt;" style="rounded=1;whiteSpace=wrap;html=1;" vertex="1" parent="SDAFO1bnm1LYiTZY5Lul-3">
          <mxGeometry x="80" y="70" width="90" height="60" as="geometry" />
        </mxCell>
        <mxCell id="SDAFO1bnm1LYiTZY5Lul-13" value="&lt;div&gt;Questions&lt;/div&gt;" style="rounded=1;whiteSpace=wrap;html=1;" vertex="1" parent="SDAFO1bnm1LYiTZY5Lul-3">
          <mxGeometry x="80" y="170" width="90" height="60" as="geometry" />
        </mxCell>
        <mxCell id="SDAFO1bnm1LYiTZY5Lul-4" value="Document" style="swimlane;startSize=23;" vertex="1" parent="1">
          <mxGeometry x="540" y="20" width="200" height="200" as="geometry" />
        </mxCell>
        <mxCell id="SDAFO1bnm1LYiTZY5Lul-14" value="&lt;div&gt;Documents&lt;/div&gt;" style="rounded=1;whiteSpace=wrap;html=1;" vertex="1" parent="SDAFO1bnm1LYiTZY5Lul-4">
          <mxGeometry x="55" y="70" width="90" height="60" as="geometry" />
        </mxCell>
        <mxCell id="SDAFO1bnm1LYiTZY5Lul-9" value="Question" style="swimlane;" vertex="1" parent="1">
          <mxGeometry x="200" y="300" width="320" height="200" as="geometry" />
        </mxCell>
        <mxCell id="SDAFO1bnm1LYiTZY5Lul-10" value="&lt;div&gt;Documents&lt;/div&gt;" style="rounded=1;whiteSpace=wrap;html=1;" vertex="1" parent="SDAFO1bnm1LYiTZY5Lul-9">
          <mxGeometry x="170" y="80" width="90" height="60" as="geometry" />
        </mxCell>
        <mxCell id="SDAFO1bnm1LYiTZY5Lul-11" value="&lt;div&gt;Questions&lt;/div&gt;" style="rounded=1;whiteSpace=wrap;html=1;" vertex="1" parent="SDAFO1bnm1LYiTZY5Lul-9">
          <mxGeometry x="44" y="80" width="90" height="60" as="geometry" />
        </mxCell>
        <mxCell id="SDAFO1bnm1LYiTZY5Lul-15" style="edgeStyle=orthogonalEdgeStyle;rounded=0;orthogonalLoop=1;jettySize=auto;html=1;entryX=0.5;entryY=0;entryDx=0;entryDy=0;exitX=0.5;exitY=1;exitDx=0;exitDy=0;" edge="1" parent="1" source="SDAFO1bnm1LYiTZY5Lul-12" target="SDAFO1bnm1LYiTZY5Lul-10">
          <mxGeometry relative="1" as="geometry">
            <mxPoint x="430" y="440" as="targetPoint" />
            <Array as="points">
              <mxPoint x="155" y="170" />
              <mxPoint x="415" y="170" />
            </Array>
          </mxGeometry>
        </mxCell>
        <mxCell id="SDAFO1bnm1LYiTZY5Lul-18" value="&amp;lt;Insert/Update&amp;gt;" style="edgeLabel;html=1;align=center;verticalAlign=middle;resizable=0;points=[];" vertex="1" connectable="0" parent="SDAFO1bnm1LYiTZY5Lul-15">
          <mxGeometry x="0.1831" y="2" relative="1" as="geometry">
            <mxPoint y="70" as="offset" />
          </mxGeometry>
        </mxCell>
        <mxCell id="SDAFO1bnm1LYiTZY5Lul-16" style="edgeStyle=orthogonalEdgeStyle;rounded=0;orthogonalLoop=1;jettySize=auto;html=1;entryX=0;entryY=0.5;entryDx=0;entryDy=0;exitX=0.5;exitY=1;exitDx=0;exitDy=0;" edge="1" parent="1" source="SDAFO1bnm1LYiTZY5Lul-13" target="SDAFO1bnm1LYiTZY5Lul-11">
          <mxGeometry relative="1" as="geometry" />
        </mxCell>
        <mxCell id="SDAFO1bnm1LYiTZY5Lul-20" value="&amp;lt;Insert&amp;gt;" style="edgeLabel;html=1;align=center;verticalAlign=middle;resizable=0;points=[];" vertex="1" connectable="0" parent="SDAFO1bnm1LYiTZY5Lul-16">
          <mxGeometry x="-0.1453" relative="1" as="geometry">
            <mxPoint as="offset" />
          </mxGeometry>
        </mxCell>
        <mxCell id="SDAFO1bnm1LYiTZY5Lul-17" style="edgeStyle=orthogonalEdgeStyle;rounded=0;orthogonalLoop=1;jettySize=auto;html=1;entryX=0.5;entryY=0;entryDx=0;entryDy=0;exitX=0.5;exitY=0;exitDx=0;exitDy=0;" edge="1" parent="1" source="SDAFO1bnm1LYiTZY5Lul-12" target="SDAFO1bnm1LYiTZY5Lul-14">
          <mxGeometry relative="1" as="geometry" />
        </mxCell>
        <mxCell id="SDAFO1bnm1LYiTZY5Lul-19" value="&amp;lt;Insert&amp;gt;" style="edgeLabel;html=1;align=center;verticalAlign=middle;resizable=0;points=[];" vertex="1" connectable="0" parent="SDAFO1bnm1LYiTZY5Lul-17">
          <mxGeometry x="0.0725" relative="1" as="geometry">
            <mxPoint as="offset" />
          </mxGeometry>
        </mxCell>
        <mxCell id="SDAFO1bnm1LYiTZY5Lul-21" style="edgeStyle=orthogonalEdgeStyle;rounded=0;orthogonalLoop=1;jettySize=auto;html=1;" edge="1" parent="1" source="SDAFO1bnm1LYiTZY5Lul-14" target="SDAFO1bnm1LYiTZY5Lul-12">
          <mxGeometry relative="1" as="geometry">
            <Array as="points" />
          </mxGeometry>
        </mxCell>
        <mxCell id="SDAFO1bnm1LYiTZY5Lul-22" value="&amp;lt;Update&amp;gt;" style="edgeLabel;html=1;align=center;verticalAlign=middle;resizable=0;points=[];" vertex="1" connectable="0" parent="SDAFO1bnm1LYiTZY5Lul-21">
          <mxGeometry x="-0.0046" relative="1" as="geometry">
            <mxPoint as="offset" />
          </mxGeometry>
        </mxCell>
        <mxCell id="SDAFO1bnm1LYiTZY5Lul-26" style="edgeStyle=orthogonalEdgeStyle;rounded=0;orthogonalLoop=1;jettySize=auto;html=1;entryX=1;entryY=0.5;entryDx=0;entryDy=0;" edge="1" parent="1" source="SDAFO1bnm1LYiTZY5Lul-11" target="SDAFO1bnm1LYiTZY5Lul-13">
          <mxGeometry relative="1" as="geometry">
            <Array as="points">
              <mxPoint x="279" y="220" />
            </Array>
          </mxGeometry>
        </mxCell>
        <mxCell id="SDAFO1bnm1LYiTZY5Lul-27" value="&amp;lt;Update&amp;gt;" style="edgeLabel;html=1;align=center;verticalAlign=middle;resizable=0;points=[];" vertex="1" connectable="0" parent="SDAFO1bnm1LYiTZY5Lul-26">
          <mxGeometry x="-0.4102" relative="1" as="geometry">
            <mxPoint x="1" y="-31" as="offset" />
          </mxGeometry>
        </mxCell>
        <mxCell id="SDAFO1bnm1LYiTZY5Lul-28" value="&lt;h1 style=&quot;margin-top: 0px;&quot;&gt;Filtros&lt;/h1&gt;&lt;p&gt;Insert: Operação de insert no banco&lt;br&gt;&lt;/p&gt;&lt;p&gt;Update: Operação de update no banco&lt;br&gt;&lt;/p&gt;&lt;p&gt;Insert/Update: Operações de insert e update no banco&lt;/p&gt;&lt;p&gt;Veja a propriedade: skipped.operations&lt;br&gt;&lt;/p&gt;" style="text;html=1;whiteSpace=wrap;overflow=hidden;rounded=0;" vertex="1" parent="1">
          <mxGeometry x="560" y="300" width="220" height="180" as="geometry" />
        </mxCell>
      </root>
    </mxGraphModel>
  </diagram>
</mxfile>
